<svg xmlns="http://www.w3.org/2000/svg" version="1.1" xmlns:xlink="http://www.w3.org/1999/xlink" xmlns:svgjs="http://svgjs.dev/svgjs" width="1000" height="222" viewBox="0 0 1000 222"><g transform="matrix(1,0,0,1,-0.6060568668398219,0.03585661764267911)"><svg viewBox="0 0 396 88" data-background-color="#333366" preserveAspectRatio="xMidYMid meet" height="222" width="1000" xmlns="http://www.w3.org/2000/svg" xmlns:xlink="http://www.w3.org/1999/xlink"><g id="tight-bounds" transform="matrix(1,0,0,1,0.23999861066022277,-0.01421343402051889)"><svg viewBox="0 0 395.52 88.02842686804101" height="88.02842686804101" width="395.52"><g><svg viewBox="0 0 506.1279822989552 112.64575767514344" height="88.02842686804101" width="395.52"><g><rect width="3.759806728897102" height="97.81107757610137" x="405.3624259918772" y="7.417340049521037" fill="#ffffff" opacity="1" stroke-width="0" stroke="transparent" fill-opacity="1" class="rect-o-0" data-fill-palette-color="primary" rx="1%" id="o-0" data-palette-color="#ffffff"></rect></g><g transform="matrix(1,0,0,1,0,15.568263180862814)"><svg viewBox="0 0 395.52 81.50923131341781" height="81.50923131341781" width="395.52"><g id="textblocktransform"><svg viewBox="0 0 395.52 81.50923131341781" height="81.50923131341781" width="395.52" id="textblock"><g><svg viewBox="0 0 395.52 41.691768718028214" height="41.691768718028214" width="395.52"><g transform="matrix(1,0,0,1,0,0)"><svg width="395.52" viewBox="3.6500000953674316 -33.5 322.5299987792969 34" height="41.691768718028214" data-palette-color="#ffffff"><path d="M3.65-33L12.25-33 12.25 0 3.65 0 3.65-33ZM33.2 0.5L33.2 0.5Q28.8 0.5 25.37-1.45 21.95-3.4 20.05-7.2 18.15-11 18.15-16.45L18.15-16.45Q18.15-21.8 20.15-25.6 22.15-29.4 25.87-31.45 29.6-33.5 34.65-33.5L34.65-33.5Q40.25-33.5 43.7-31.48 47.15-29.45 49.05-25.05L49.05-25.05 41.1-21.9Q40.45-24.45 38.8-25.6 37.15-26.75 34.7-26.75L34.7-26.75Q32.25-26.75 30.5-25.58 28.75-24.4 27.85-22.13 26.95-19.85 26.95-16.5L26.95-16.5Q26.95-13 27.87-10.65 28.8-8.3 30.62-7.18 32.45-6.05 35.15-6.05L35.15-6.05Q36.6-6.05 37.8-6.4 39-6.75 39.9-7.43 40.8-8.1 41.3-9.13 41.8-10.15 41.8-11.55L41.8-11.55 41.8-12.05 34.25-12.05 34.25-17.8 49.1-17.8 49.1 0 43.25 0 42.6-7.75 44-6.55Q42.95-3.15 40.22-1.33 37.5 0.5 33.2 0.5ZM91.19-33L99.79-33 99.79 0 91.19 0 91.19-33ZM69.99-33L78.59-33 78.59 0 69.99 0 69.99-33ZM74.19-19.95L95.79-19.95 95.79-13.3 74.19-13.3 74.19-19.95ZM121.89-33.5L121.89-33.5Q126.89-33.5 130.51-31.48 134.14-29.45 136.09-25.65 138.04-21.85 138.04-16.5L138.04-16.5Q138.04-11.15 136.09-7.35 134.14-3.55 130.51-1.53 126.89 0.5 121.89 0.5L121.89 0.5Q116.89 0.5 113.24-1.53 109.59-3.55 107.64-7.35 105.69-11.15 105.69-16.5L105.69-16.5Q105.69-21.85 107.64-25.65 109.59-29.45 113.24-31.48 116.89-33.5 121.89-33.5ZM121.89-26.75L121.89-26.75Q119.49-26.75 117.84-25.6 116.19-24.45 115.34-22.18 114.49-19.9 114.49-16.5L114.49-16.5Q114.49-13.15 115.34-10.85 116.19-8.55 117.84-7.4 119.49-6.25 121.89-6.25L121.89-6.25Q124.29-6.25 125.91-7.4 127.54-8.55 128.39-10.85 129.24-13.15 129.24-16.5L129.24-16.5Q129.24-19.9 128.39-22.18 127.54-24.45 125.91-25.6 124.29-26.75 121.89-26.75ZM152.54-33L152.54-6.65 169.09-6.65 169.09 0 143.94 0 143.94-33 152.54-33ZM174.03-33L188.03-33Q195.78-33 199.91-28.7 204.03-24.4 204.03-16.5L204.03-16.5Q204.03-8.6 199.91-4.3 195.78 0 188.03 0L188.03 0 174.03 0 174.03-33ZM182.63-6.5L187.19-6.5Q191.38-6.5 193.31-9.03 195.23-11.55 195.23-16.5L195.23-16.5Q195.23-21.45 193.31-23.98 191.38-26.5 187.19-26.5L187.19-26.5 182.63-26.5 182.63-6.5ZM209.93-33L218.53-33 218.53 0 209.93 0 209.93-33ZM247.98-33L255.58-33 255.58 0 246.03 0 235.78-17.85 233.28-22.75 233.23-22.75 233.43-16.65 233.43 0 225.83 0 225.83-33 235.38-33 245.63-15.15 248.13-10.25 248.18-10.25 247.98-16.35 247.98-33ZM276.53 0.5L276.53 0.5Q272.13 0.5 268.7-1.45 265.28-3.4 263.38-7.2 261.48-11 261.48-16.45L261.48-16.45Q261.48-21.8 263.48-25.6 265.48-29.4 269.2-31.45 272.93-33.5 277.98-33.5L277.98-33.5Q283.58-33.5 287.03-31.48 290.48-29.45 292.38-25.05L292.38-25.05 284.43-21.9Q283.78-24.45 282.13-25.6 280.48-26.75 278.03-26.75L278.03-26.75Q275.58-26.75 273.83-25.58 272.08-24.4 271.18-22.13 270.28-19.85 270.28-16.5L270.28-16.5Q270.28-13 271.2-10.65 272.13-8.3 273.95-7.18 275.78-6.05 278.48-6.05L278.48-6.05Q279.93-6.05 281.13-6.4 282.33-6.75 283.23-7.43 284.13-8.1 284.63-9.13 285.13-10.15 285.13-11.55L285.13-11.55 285.13-12.05 277.58-12.05 277.58-17.8 292.43-17.8 292.43 0 286.58 0 285.93-7.75 287.33-6.55Q286.28-3.15 283.55-1.33 280.83 0.5 276.53 0.5ZM311.93-33.5L311.93-33.5Q316.52-33.5 320.05-32.08 323.57-30.65 326.18-27.9L326.18-27.9 322.02-22.35Q319.88-24.6 317.4-25.73 314.93-26.85 311.77-26.85L311.77-26.85Q309.93-26.85 308.77-26.45 307.63-26.05 307.13-25.35 306.63-24.65 306.63-23.75L306.63-23.75Q306.63-22.7 307.6-21.98 308.57-21.25 310.77-20.75L310.77-20.75 316.32-19.5Q321.27-18.35 323.57-16.15 325.88-13.95 325.88-10.3L325.88-10.3Q325.88-6.8 324.07-4.38 322.27-1.95 319.13-0.73 315.98 0.5 311.93 0.5L311.93 0.5Q308.63 0.5 305.63-0.23 302.63-0.95 300.23-2.3 297.82-3.65 296.18-5.4L296.18-5.4 300.32-11.15Q301.57-9.7 303.4-8.58 305.23-7.45 307.4-6.8 309.57-6.15 311.82-6.15L311.82-6.15Q313.57-6.15 314.75-6.5 315.93-6.85 316.48-7.55 317.02-8.25 317.02-9.2L317.02-9.2Q317.02-10.25 316.27-10.98 315.52-11.7 313.43-12.2L313.43-12.2 307.32-13.55Q304.52-14.2 302.35-15.28 300.18-16.35 298.93-18.18 297.68-20 297.68-22.75L297.68-22.75Q297.68-25.85 299.38-28.28 301.07-30.7 304.27-32.1 307.48-33.5 311.93-33.5Z" opacity="1" transform="matrix(1,0,0,1,0,0)" fill="#ffffff" class="wordmark-text-0" data-fill-palette-color="primary" id="text-0"></path></svg></g></svg></g><g transform="matrix(1,0,0,1,163.310208,51.53419470990544)"><svg viewBox="0 0 232.209792 29.975036603512372" height="29.975036603512372" width="232.209792"><g transform="matrix(1,0,0,1,0,0)"><svg width="232.209792" viewBox="4.050000190734863 -38.150001525878906 390.010009765625 50.35000228881836" height="29.975036603512372" data-palette-color="#ff6699"><path d="M6.95 0L4.05 0 4.05-36.7 6.95-36.7 6.95 0ZM18.05 0L15.15 0 15.15-26.65 17.3-26.65 18.05-23.65Q20.05-25 22.67-26.05 25.3-27.1 28.2-27.1L28.2-27.1Q31-27.1 32.82-25.88 34.65-24.65 35.55-22.63 36.45-20.6 36.45-18.3L36.45-18.3 36.45 0 33.55 0 33.55-18Q33.55-19.85 32.8-21.3 32.05-22.75 30.7-23.6 29.35-24.45 27.4-24.45L27.4-24.45Q25.5-24.45 23.97-24.13 22.45-23.8 21.02-23.15 19.6-22.5 18.05-21.65L18.05-21.65 18.05 0ZM56.2 0L52.85 0Q50.45 0 48.82-0.85 47.2-1.7 46.4-3.55 45.6-5.4 45.6-8.35L45.6-8.35 45.75-24.2 41.5-24.2 41.5-26.1 45.75-26.65 46.3-34.1 48.5-34.1 48.5-26.65 56.6-26.65 56.6-24.2 48.5-24.2 48.5-8.35Q48.5-6.45 48.92-5.28 49.35-4.1 50.02-3.5 50.7-2.9 51.47-2.68 52.25-2.45 52.95-2.4L52.95-2.4 56.2-2.1 56.2 0ZM72.34 0.3L72.34 0.3Q68.24 0.3 65.87-0.98 63.49-2.25 62.49-5.25 61.49-8.25 61.49-13.4L61.49-13.4Q61.49-18.65 62.54-21.6 63.59-24.55 66.02-25.75 68.44-26.95 72.49-26.95L72.49-26.95Q75.89-26.95 78.07-26.18 80.24-25.4 81.32-23.5 82.39-21.6 82.39-18.25L82.39-18.25Q82.39-16 81.52-14.63 80.64-13.25 78.99-12.65 77.34-12.05 75.09-12.05L75.09-12.05 64.39-12.05Q64.39-8.4 65.09-6.2 65.79-4 67.62-3 69.44-2 72.99-2L72.99-2 81.79-2 81.79-0.25Q79.39 0 77.27 0.15 75.14 0.3 72.34 0.3ZM64.34-14.1L64.34-14.1 74.89-14.1Q77.34-14.1 78.54-14.98 79.74-15.85 79.74-18.25L79.74-18.25Q79.74-20.75 79.02-22.15 78.29-23.55 76.72-24.13 75.14-24.7 72.49-24.7L72.49-24.7Q69.34-24.7 67.57-23.8 65.79-22.9 65.07-20.6 64.34-18.3 64.34-14.1ZM103.29 12.2L95.99 12.2Q93.39 12.2 91.42 11.48 89.44 10.75 88.32 9.28 87.19 7.8 87.19 5.55L87.19 5.55 87.19 4.25Q87.19 1.85 88.49 0.33 89.79-1.2 91.74-1.98 93.69-2.75 95.69-2.75L95.69-2.75 96.29-1.4Q94.69-1.4 93.24-0.85 91.79-0.3 90.87 0.83 89.94 1.95 89.94 3.85L89.94 3.85 89.94 5.1Q89.94 7.8 91.74 8.9 93.54 10 96.59 10L96.59 10 103.04 10Q106.44 10 108.37 8.7 110.29 7.4 110.29 4.75L110.29 4.75 110.29 3.6Q110.29 2.1 109.69 0.98 109.09-0.15 107.67-0.78 106.24-1.4 103.64-1.4L103.64-1.4 94.99-1.4Q92.29-1.4 90.72-2.6 89.14-3.8 89.14-5.8L89.14-5.8Q89.14-7.8 90.34-8.9 91.54-10 93.69-10.4L93.69-10.4Q91.74-11.15 90.67-12.43 89.59-13.7 89.17-15.2 88.74-16.7 88.74-18.15L88.74-18.15Q88.74-21.3 90.02-23.18 91.29-25.05 93.57-25.88 95.84-26.7 98.79-26.7L98.79-26.7 112.99-26.7 112.99-25 106.39-24.6Q107.09-24.15 107.99-23.43 108.89-22.7 109.57-21.28 110.24-19.85 110.24-17.35L110.24-17.35Q110.24-15.4 109.39-13.55 108.54-11.7 106.49-10.48 104.44-9.25 100.89-9.25L100.89-9.25 96.79-9.25Q94.39-9.25 93.07-8.58 91.74-7.9 91.74-6.15L91.74-6.15Q91.74-4.8 92.69-4.25 93.64-3.7 94.69-3.7L94.69-3.7 103.99-3.7Q107.09-3.7 109.07-2.9 111.04-2.1 112.02-0.53 112.99 1.05 112.99 3.4L112.99 3.4 112.99 4.6Q112.99 8.2 110.54 10.2 108.09 12.2 103.29 12.2L103.29 12.2ZM97.54-11.6L97.54-11.6 100.59-11.6Q103.44-11.6 104.94-12.48 106.44-13.35 106.99-14.7 107.54-16.05 107.54-17.65L107.54-17.65Q107.54-20.15 106.69-21.63 105.84-23.1 104.42-23.75 102.99-24.4 101.09-24.4L101.09-24.4 98.24-24.4Q95.09-24.4 93.27-22.98 91.44-21.55 91.44-18.05L91.44-18.05Q91.44-14.65 93.09-13.13 94.74-11.6 97.54-11.6ZM121.19 0L118.29 0 118.29-26.65 120.44-26.65 121.19-21.85Q123.09-24.05 125.41-25.5 127.74-26.95 130.79-26.95L130.79-26.95Q131.54-26.95 132.19-26.88 132.84-26.8 133.39-26.65L133.39-26.65 133.39-23.7Q132.74-23.8 132.04-23.9 131.34-24 130.54-24L130.54-24Q128.59-24 127.06-23.5 125.54-23 124.14-22.03 122.74-21.05 121.19-19.6L121.19-19.6 121.19 0ZM142.79 0.3L142.79 0.3Q139.89 0.3 137.96-1.43 136.04-3.15 136.04-6.35L136.04-6.35 136.04-8.15Q136.04-11.3 138.11-13.25 140.19-15.2 144.24-15.2L144.24-15.2 153.99-15.2 153.99-18.9Q153.99-20.7 153.36-22 152.74-23.3 151.19-24 149.64-24.7 146.74-24.7L146.74-24.7 138.39-24.7 138.39-26.45Q140.04-26.65 142.31-26.85 144.59-27.05 147.54-27.1L147.54-27.1Q150.79-27.15 152.86-26.28 154.94-25.4 155.91-23.6 156.89-21.8 156.89-19.05L156.89-19.05 156.89 0 154.69 0 154.09-3.1Q153.94-3 152.86-2.48 151.79-1.95 150.09-1.3 148.39-0.65 146.49-0.18 144.59 0.3 142.79 0.3ZM143.79-2L143.79-2Q144.79-1.95 146.11-2.23 147.44-2.5 148.79-2.88 150.14-3.25 151.31-3.63 152.49-4 153.21-4.3 153.94-4.6 153.99-4.6L153.99-4.6 153.99-13.65 144.69-13.3Q141.59-13.2 140.26-11.75 138.94-10.3 138.94-8.1L138.94-8.1 138.94-6.85Q138.94-5.05 139.69-3.98 140.44-2.9 141.56-2.45 142.69-2 143.79-2ZM176.63 0L173.28 0Q170.88 0 169.26-0.85 167.63-1.7 166.83-3.55 166.03-5.4 166.03-8.35L166.03-8.35 166.18-24.2 161.93-24.2 161.93-26.1 166.18-26.65 166.73-34.1 168.93-34.1 168.93-26.65 177.03-26.65 177.03-24.2 168.93-24.2 168.93-8.35Q168.93-6.45 169.36-5.28 169.78-4.1 170.46-3.5 171.13-2.9 171.91-2.68 172.68-2.45 173.38-2.4L173.38-2.4 176.63-2.1 176.63 0ZM192.78 0.3L192.78 0.3Q188.68 0.3 186.31-0.98 183.93-2.25 182.93-5.25 181.93-8.25 181.93-13.4L181.93-13.4Q181.93-18.65 182.98-21.6 184.03-24.55 186.46-25.75 188.88-26.95 192.93-26.95L192.93-26.95Q196.33-26.95 198.51-26.18 200.68-25.4 201.76-23.5 202.83-21.6 202.83-18.25L202.83-18.25Q202.83-16 201.96-14.63 201.08-13.25 199.43-12.65 197.78-12.05 195.53-12.05L195.53-12.05 184.83-12.05Q184.83-8.4 185.53-6.2 186.23-4 188.06-3 189.88-2 193.43-2L193.43-2 202.23-2 202.23-0.25Q199.83 0 197.71 0.15 195.58 0.3 192.78 0.3ZM184.78-14.1L184.78-14.1 195.33-14.1Q197.78-14.1 198.98-14.98 200.18-15.85 200.18-18.25L200.18-18.25Q200.18-20.75 199.46-22.15 198.73-23.55 197.16-24.13 195.58-24.7 192.93-24.7L192.93-24.7Q189.78-24.7 188.01-23.8 186.23-22.9 185.51-20.6 184.78-18.3 184.78-14.1ZM218.63 0.3L218.63 0.3Q215.28 0.3 213.15-1.15 211.03-2.6 210.03-5.6 209.03-8.6 209.03-13.15L209.03-13.15Q209.03-18.1 210.05-21.15 211.08-24.2 213.28-25.58 215.48-26.95 219.13-26.95L219.13-26.95Q221.48-26.95 223.75-26.43 226.03-25.9 227.73-25.3L227.73-25.3 227.73-38.15 230.63-38.15 230.63 0 228.33 0 227.73-2.75Q227.03-2.1 225.48-1.4 223.93-0.7 222.08-0.2 220.23 0.3 218.63 0.3ZM219.33-2.15L219.33-2.15Q221.88-2.15 223.95-2.95 226.03-3.75 227.73-4.6L227.73-4.6 227.73-23.25Q225.68-23.85 223.88-24.25 222.08-24.65 219.78-24.65L219.78-24.65Q216.98-24.65 215.25-23.6 213.53-22.55 212.73-20.08 211.93-17.6 211.93-13.25L211.93-13.25Q211.93-9.35 212.68-6.88 213.43-4.4 215.05-3.28 216.68-2.15 219.33-2.15ZM255.17 0L252.27 0 252.27-36.7 255.17-36.7 255.17-19.15 274.97-19.15 274.97-36.7 277.87-36.7 277.87 0 274.97 0 274.97-16.55 255.17-16.55 255.17 0ZM295.92 0.3L295.92 0.3Q291.82 0.3 289.45-0.98 287.07-2.25 286.07-5.25 285.07-8.25 285.07-13.4L285.07-13.4Q285.07-18.65 286.12-21.6 287.17-24.55 289.6-25.75 292.02-26.95 296.07-26.95L296.07-26.95Q299.47-26.95 301.65-26.18 303.82-25.4 304.9-23.5 305.97-21.6 305.97-18.25L305.97-18.25Q305.97-16 305.1-14.63 304.22-13.25 302.57-12.65 300.92-12.05 298.67-12.05L298.67-12.05 287.97-12.05Q287.97-8.4 288.67-6.2 289.37-4 291.2-3 293.02-2 296.57-2L296.57-2 305.37-2 305.37-0.25Q302.97 0 300.85 0.15 298.72 0.3 295.92 0.3ZM287.92-14.1L287.92-14.1 298.47-14.1Q300.92-14.1 302.12-14.98 303.32-15.85 303.32-18.25L303.32-18.25Q303.32-20.75 302.6-22.15 301.87-23.55 300.3-24.13 298.72-24.7 296.07-24.7L296.07-24.7Q292.92-24.7 291.15-23.8 289.37-22.9 288.65-20.6 287.92-18.3 287.92-14.1ZM318.22 0.3L318.22 0.3Q315.32 0.3 313.39-1.43 311.47-3.15 311.47-6.35L311.47-6.35 311.47-8.15Q311.47-11.3 313.54-13.25 315.62-15.2 319.67-15.2L319.67-15.2 329.42-15.2 329.42-18.9Q329.42-20.7 328.79-22 328.17-23.3 326.62-24 325.07-24.7 322.17-24.7L322.17-24.7 313.82-24.7 313.82-26.45Q315.47-26.65 317.74-26.85 320.02-27.05 322.97-27.1L322.97-27.1Q326.22-27.15 328.29-26.28 330.37-25.4 331.34-23.6 332.32-21.8 332.32-19.05L332.32-19.05 332.32 0 330.12 0 329.52-3.1Q329.37-3 328.29-2.48 327.22-1.95 325.52-1.3 323.82-0.65 321.92-0.18 320.02 0.3 318.22 0.3ZM319.22-2L319.22-2Q320.22-1.95 321.54-2.23 322.87-2.5 324.22-2.88 325.57-3.25 326.74-3.63 327.92-4 328.64-4.3 329.37-4.6 329.42-4.6L329.42-4.6 329.42-13.65 320.12-13.3Q317.02-13.2 315.69-11.75 314.37-10.3 314.37-8.1L314.37-8.1 314.37-6.85Q314.37-5.05 315.12-3.98 315.87-2.9 316.99-2.45 318.12-2 319.22-2ZM350.12 0.05L346.87 0.05Q344.77 0.05 343.29-0.75 341.82-1.55 341.07-3.4 340.32-5.25 340.32-8.5L340.32-8.5 340.32-38.15 343.22-38.15 343.22-8.8Q343.22-6.2 343.69-4.85 344.17-3.5 345.09-3 346.02-2.5 347.22-2.35L347.22-2.35 350.12-2 350.12 0.05ZM366.46 0L363.11 0Q360.71 0 359.09-0.85 357.46-1.7 356.66-3.55 355.86-5.4 355.86-8.35L355.86-8.35 356.01-24.2 351.76-24.2 351.76-26.1 356.01-26.65 356.56-34.1 358.76-34.1 358.76-26.65 366.86-26.65 366.86-24.2 358.76-24.2 358.76-8.35Q358.76-6.45 359.19-5.28 359.61-4.1 360.29-3.5 360.96-2.9 361.74-2.68 362.51-2.45 363.21-2.4L363.21-2.4 366.46-2.1 366.46 0ZM375.66 0L372.76 0 372.76-38.15 375.66-38.15 375.66-23.65Q377.61-25 380.29-26.05 382.96-27.1 385.81-27.1L385.81-27.1Q388.56-27.1 390.39-25.9 392.21-24.7 393.14-22.68 394.06-20.65 394.06-18.3L394.06-18.3 394.06 0 391.16 0 391.16-18.05Q391.16-19.85 390.41-21.3 389.66-22.75 388.31-23.6 386.96-24.45 385.01-24.45L385.01-24.45Q383.11-24.45 381.59-24.1 380.06-23.75 378.66-23.13 377.26-22.5 375.66-21.65L375.66-21.65 375.66 0Z" opacity="1" transform="matrix(1,0,0,1,0,0)" fill="#ff6699" class="slogan-text-1" data-fill-palette-color="secondary" id="text-1"></path></svg></g></svg></g></svg></g></svg></g><g transform="matrix(1,0,0,1,418.96465871265156,0)"><svg viewBox="0 0 87.16332358630362 112.64575767514344" height="112.64575767514344" width="87.16332358630362"><g><svg xmlns="http://www.w3.org/2000/svg" xmlns:xlink="http://www.w3.org/1999/xlink" version="1.1" x="0" y="0" viewBox="12.982999801635742 1 75.68599700927734 97.81300354003906" enable-background="new 0 0 100 100" xml:space="preserve" height="112.64575767514344" width="87.16332358630362" class="icon-icon-0" data-fill-palette-color="accent" id="icon-0"><g fill="#ffffff" data-fill-palette-color="accent"><polygon fill-rule="evenodd" clip-rule="evenodd" points="12.983,10.59 30.001,98.813 24.129,39.764 53.15,37.872 53.096,27.989    64.549,1 53.622,18.977  " fill="#ffffff" data-fill-palette-color="accent"></polygon><polygon fill-rule="evenodd" clip-rule="evenodd" points="59.389,54.548 64.549,1.007 55.809,40.723 36.197,41.768 37.767,62.23    30.001,98.813 42.058,58.914  " fill="#ffffff" data-fill-palette-color="accent"></polygon><polygon fill-rule="evenodd" clip-rule="evenodd" points="62.8,67.182 63.349,56.729 47.37,60.484 47.338,72.281 30.001,98.813    51.681,71.197  " fill="#ffffff" data-fill-palette-color="accent"></polygon><polygon fill-rule="evenodd" clip-rule="evenodd" points="65.711,62.394 80.552,57.663 82.061,45.131 66.162,47.226  " fill="#ffffff" data-fill-palette-color="accent"></polygon><polygon fill-rule="evenodd" clip-rule="evenodd" points="72.07,44.502 83.058,43.085 84.639,32.807 76.56,32.434 64.549,1    72.979,31.967  " fill="#ffffff" data-fill-palette-color="accent"></polygon><polygon fill-rule="evenodd" clip-rule="evenodd" points="87.413,31.294 88.669,21.788 79.125,19.094 64.549,1 79.032,23.437    78.61,30.437  " fill="#ffffff" data-fill-palette-color="accent"></polygon></g></svg></g></svg></g></svg></g><defs></defs></svg><rect width="395.52" height="88.02842686804101" fill="none" stroke="none" visibility="hidden"></rect></g></svg></g></svg>